# xmcd
#
# Track frame offsets: 
#        182
#        13675
#        26305
#        37895
#        50825
#        63387
#        74907
#        86632
#        98630
#        111822
#        124327
#        135105
#        146865
#        157415
#        170795
#        184237
#        196602
#        209690
#        223407
#        238580
#        251690
#        264560
#        276107
#        288472
#        300755
#
# Disc length: 4180 seconds
#
# Revision: 4
# Processed by: cddbd v1.5.2PL0 Copyright (c) Steve Scherf et al.
# Submitted via: ExactAudioCopyFreeDBPlugin 1.0
#
DISCID=83105219
DTITLE=Smokey Robinson - Smokey Robinson and The Miracles:  The 35th A
DTITLE=nniversary Collection [box set]
DYEAR=1994
DGENRE=Soul
TTITLE0=You've Really Got a Hold on Me
TTITLE1=Happy Landing
TTITLE2=Father Dear
TTITLE3=A Love She Can Count On
TTITLE4=Mickey's Monkey
TTITLE5=Whatever Makes You Happy
TTITLE6=The Day You Take One (You Have to Take the Other)
TTITLE7=I Gotta Dance to Keep from Crying
TTITLE8=(You Can't Let the Boy Overpower) The Man in You
TTITLE9=Heartbreak Road
TTITLE10=Show Me You Can Dance
TTITLE11=I Like it Like That
TTITLE12=You're So Fine and Sweet
TTITLE13=That's What Love is Made Of
TTITLE14=Baby Don't You Go
TTITLE15=Ooo Baby Baby
TTITLE16=All That's Good
TTITLE17=The Tracks of My Tears
TTITLE18=A Fork in the Road
TTITLE19=My Girl Has Gone
TTITLE20=Going to a Go-Go
TTITLE21=Choosey Beggar
TTITLE22=I'm Stuck on You
TTITLE23=Whole Lot of Shakin' in My Heart (Since I Met You)
TTITLE24=Oh Be My Love
EXTD=
EXTT0=
EXTT1=
EXTT2=
EXTT3=
EXTT4=
EXTT5=
EXTT6=
EXTT7=
EXTT8=
EXTT9=
EXTT10=
EXTT11=
EXTT12=
EXTT13=
EXTT14=
EXTT15=
EXTT16=
EXTT17=
EXTT18=
EXTT19=
EXTT20=
EXTT21=
EXTT22=
EXTT23=
EXTT24=
PLAYORDER=
